<svg width="64" height="18" viewBox="0 0 64 18" fill="none" xmlns="http://www.w3.org/2000/svg">
    <path d="M8 4.66666L9.648 7.95793L13.3333 8.48895L10.6667 11.0494L11.296 14.6667L8 12.9579L4.70401 14.6667L5.33334 11.0494L2.66667 8.48895L6.352 7.95793L8 4.66666Z" fill="#FFC043" stroke="#FFC043" stroke-linecap="round" stroke-linejoin="round"/>
    <path d="M24 4.66666L25.648 7.95793L29.3333 8.48895L26.6667 11.0494L27.296 14.6667L24 12.9579L20.704 14.6667L21.3333 11.0494L18.6667 8.48895L22.352 7.95793L24 4.66666Z" fill="#FFC043" stroke="#FFC043" stroke-linecap="round" stroke-linejoin="round"/>
    <path d="M40 4.66666L41.648 7.95793L45.3333 8.48895L42.6667 11.0494L43.296 14.6667L40 12.9579L36.704 14.6667L37.3333 11.0494L34.6667 8.48895L38.352 7.95793L40 4.66666Z" fill="#FFC043" stroke="#FFC043" stroke-linecap="round" stroke-linejoin="round"/>
    <path d="M56 4.66666L57.648 7.95793L61.3333 8.48895L58.6667 11.0494L59.296 14.6667L56 12.9579L52.704 14.6667L53.3333 11.0494L50.6667 8.48895L54.352 7.95793L56 4.66666Z" fill="#FFC043" stroke="#FFC043" stroke-linecap="round" stroke-linejoin="round"/>
</svg>
